<?xml version="1.0" standalone="no"?><!DOCTYPE svg PUBLIC "-//W3C//DTD SVG 1.1//EN" "http://www.w3.org/Graphics/SVG/1.1/DTD/svg11.dtd"><svg t="1573474130548" class="icon" viewBox="0 0 1024 1024" version="1.1" xmlns="http://www.w3.org/2000/svg" p-id="5092" xmlns:xlink="http://www.w3.org/1999/xlink" width="200" height="200"><defs><style type="text/css"></style></defs><path d="M903.402 329.143H743.951v97.69h159.451v-97.69z m0 125.513H743.951v99.68h159.451v-99.68z m0-251.143H743.951v97.69h159.451v-97.69z m0 496.172H743.951v99.679h159.451v-99.68zM977.13 103.95H594.622c-3.979 0-7.987 0-11.995 1.99V0.41L14.775 113.927v771.13l565.92 111.53V895.063c3.98 1.96 7.988 1.96 11.967 1.96H975.14c19.953 0 33.938-15.945 33.938-35.781V139.76a32.651 32.651 0 0 0-31.949-35.81zM397.4 663.874l-67.76-4.008-51.785-129.493-55.764 121.505-63.751-3.979 81.715-147.456-73.728-161.44 63.78-4.009 43.77 121.534h7.986l47.777-129.492 67.76-4.008-85.724 171.3L397.4 663.875z m569.753 189.235H580.667v-53.745h129.492v-99.68H580.667v-21.942h129.492v-97.72H580.667v-25.95h129.492v-99.68H580.667v-27.94h129.492v-97.69H580.667v-25.95h129.492v-97.69H580.667v-55.764h386.486v703.78z m-63.75-272.97H743.95v97.72h159.451v-97.72z" p-id="5093"></path></svg>